<svg width="512" height="512" viewBox="0 0 512 512" fill="none" xmlns="http://www.w3.org/2000/svg">
  <g clip-path="url(#clip0_86_2)">
    <path
      d="M362 0H150C67.1573 0 0 67.1573 0 150V362C0 444.843 67.1573 512 150 512H362C444.843 512 512 444.843 512 362V150C512 67.1573 444.843 0 362 0Z"
      fill="#1273EB" />
    <g opacity="0.1">
      <path
        d="M126 428.348V391.689L225.215 254.285L126 120.188V84H382.91V178.131H322.06L319.691 147.381H245.11L240.136 146.675L313.304 252.86V255.696L239.43 365.672L240.621 364.967H322.78L325.15 334.452H386V428.348H126Z"
        fill="white" />
    </g>
    <path
      d="M256 89.333C298.667 89.333 337.633 105.4 367.117 131.783C368.771 133.236 370.12 135.003 371.087 136.981C372.055 138.959 372.62 141.109 372.752 143.306C372.884 145.504 372.578 147.706 371.854 149.785C371.13 151.865 370.001 153.78 368.532 155.42C367.064 157.06 365.285 158.393 363.298 159.342C361.311 160.291 359.156 160.837 356.957 160.948C354.758 161.059 352.559 160.734 350.487 159.99C348.414 159.247 346.51 158.1 344.883 156.616C325.698 139.458 301.957 128.219 276.525 124.256C251.094 120.293 225.058 123.776 201.562 134.284C178.066 144.792 158.114 161.877 144.114 183.475C130.114 205.072 122.664 230.261 122.664 256C122.664 281.738 130.114 306.927 144.114 328.525C158.114 350.123 178.066 367.207 201.562 377.715C225.058 388.223 251.094 391.706 276.525 387.743C301.957 383.781 325.698 372.542 344.883 355.383C346.51 353.899 348.414 352.753 350.487 352.009C352.559 351.266 354.758 350.94 356.957 351.051C359.156 351.162 361.311 351.708 363.298 352.657C365.285 353.606 367.064 354.939 368.532 356.579C370.001 358.22 371.13 360.135 371.854 362.214C372.578 364.293 372.884 366.495 372.752 368.693C372.62 370.891 372.055 373.041 371.087 375.019C370.12 376.996 368.771 378.763 367.117 380.216C336.585 407.593 297.008 422.712 256 422.666C163.95 422.666 89.3333 348.05 89.3333 256C89.3333 163.95 163.95 89.333 256 89.333ZM205.4 200.166C205.768 197.1 206.847 194.162 208.549 191.585C210.251 189.009 212.531 186.864 215.207 185.323C217.882 183.781 220.881 182.884 223.964 182.704C227.047 182.523 230.129 183.064 232.967 184.283L238.383 186.666L245.717 190.033L251.533 192.85L258.033 196.116L265.2 199.833L272.9 204.016L281.133 208.683L285.283 211.1L293.1 215.8L300.233 220.266L309.633 226.4L317.367 231.7L324.95 237.166L326.333 238.183C336.917 246.133 337 262 326.35 270L321.633 273.483L315.083 278.083L306.817 283.666L300.367 287.833L293.2 292.333L285.317 297.05C283.95 297.861 282.55 298.677 281.117 299.5L272.817 304.2L265.05 308.416L257.883 312.15L251.383 315.416L242.967 319.45L236.3 322.466L232.933 323.933C230.097 325.142 227.018 325.675 223.941 325.489C220.863 325.302 217.871 324.402 215.201 322.86C212.532 321.317 210.258 319.174 208.559 316.601C206.861 314.028 205.785 311.094 205.417 308.033L204.517 299.716L204.017 294.15L203.317 284.166L202.917 276.5L202.617 268.066L202.45 258.916V249.266L202.617 240.133L202.917 231.7L203.317 224.033L204.017 214.05L205.2 201.883L205.4 200.166Z"
      fill="white" />
  </g>
  <defs>
    <clipPath id="clip0_86_2">
      <rect width="512" height="512" fill="white" />
    </clipPath>
  </defs>
</svg>
